<svg width="69" height="69" viewBox="0 0 69 69" fill="none" xmlns="http://www.w3.org/2000/svg">
<path fill-rule="evenodd" clip-rule="evenodd" d="M67.0818 32.2954C64.0389 15.3007 57.2355 10.2878 53.6165 10.2878C47.9688 10.2878 46.5198 14.4865 34.5 14.6279C22.4802 14.4865 21.0312 10.2878 15.3836 10.2878C11.7645 10.2878 4.9577 15.3007 1.9148 32.2954C0.179445 41.9968 -1.70425 56.4799 2.7842 58.2187C8.36975 60.3818 10.2638 54.9722 16.3979 50.401C22.6251 45.7676 25.6128 44.6774 34.5 44.6774C43.3872 44.6774 46.3749 45.7676 52.6022 50.401C58.7363 54.9688 60.6304 60.3818 66.2159 58.2187C70.7044 56.4799 68.8206 42.0002 67.0818 32.2954ZM20.7 34.4999C18.8701 34.4999 17.115 33.773 15.821 32.479C14.527 31.185 13.8 29.4299 13.8 27.5999C13.8 25.7699 14.527 24.0149 15.821 22.7209C17.115 21.4269 18.8701 20.6999 20.7 20.6999C22.53 20.6999 24.2851 21.4269 25.5791 22.7209C26.8731 24.0149 27.6 25.7699 27.6 27.5999C27.6 29.4299 26.8731 31.185 25.5791 32.479C24.2851 33.773 22.53 34.4999 20.7 34.4999ZM44.85 34.4999C43.935 34.4999 43.0575 34.1365 42.4105 33.4895C41.7635 32.8425 41.4 31.9649 41.4 31.0499C41.4 30.1349 41.7635 29.2574 42.4105 28.6104C43.0575 27.9634 43.935 27.5999 44.85 27.5999C45.765 27.5999 46.6426 27.9634 47.2896 28.6104C47.9366 29.2574 48.3 30.1349 48.3 31.0499C48.3 31.9649 47.9366 32.8425 47.2896 33.4895C46.6426 34.1365 45.765 34.4999 44.85 34.4999ZM51.75 27.5999C50.835 27.5999 49.9575 27.2365 49.3105 26.5895C48.6635 25.9425 48.3 25.0649 48.3 24.1499C48.3 23.2349 48.6635 22.3574 49.3105 21.7104C49.9575 21.0634 50.835 20.6999 51.75 20.6999C52.665 20.6999 53.5426 21.0634 54.1896 21.7104C54.8366 22.3574 55.2 23.2349 55.2 24.1499C55.2 25.0649 54.8366 25.9425 54.1896 26.5895C53.5426 27.2365 52.665 27.5999 51.75 27.5999Z" fill="black"/>
</svg>
