<svg width="56" height="56" viewBox="0 0 56 56" fill="none" xmlns="http://www.w3.org/2000/svg">
<g clip-path="url(#clip0_1164_1466)">
<path d="M54.8077 43.2797L41.9999 30.4719C39.4733 27.9453 35.6999 27.4531 32.6592 28.9516L20.9999 17.2922V10.5L6.99985 0L-0.000146568 7L10.4999 21H17.292L28.9514 32.6594C27.4639 35.7 27.9452 39.4734 30.4717 42L43.2795 54.8078C44.8764 56.4047 47.4577 56.4047 49.0436 54.8078L54.8077 49.0438C56.3936 47.4469 56.3936 44.8656 54.8077 43.2797ZM36.2795 24.6094C39.3749 24.6094 42.2842 25.8125 44.4717 28L46.5936 30.1219C48.3217 29.3672 49.9623 28.3172 51.3842 26.8953C55.442 22.8375 56.8202 17.1281 55.5295 11.9437C55.2889 10.9594 54.053 10.6203 53.3311 11.3422L45.1936 19.4797L37.767 18.2437L36.5311 10.8172L44.6686 2.67969C45.3905 1.95781 45.0405 0.721875 44.0452 0.470313C38.8608 -0.809375 33.1514 0.56875 29.1045 4.61562C25.9874 7.73281 24.5217 11.8453 24.5983 15.9469L33.578 24.9266C34.4639 24.7188 35.3827 24.6094 36.2795 24.6094ZM24.9155 33.5781L18.7139 27.3766L2.04517 44.0562C-0.689209 46.7906 -0.689209 51.2203 2.04517 53.9547C4.77954 56.6891 9.20923 56.6891 11.9436 53.9547L25.4624 40.4359C24.6311 38.2594 24.3795 35.8859 24.9155 33.5781ZM6.99985 51.625C5.5561 51.625 4.37485 50.4437 4.37485 49C4.37485 47.5453 5.54517 46.375 6.99985 46.375C8.45454 46.375 9.62485 47.5453 9.62485 49C9.62485 50.4437 8.45454 51.625 6.99985 51.625Z" fill="black"/>
</g>
<defs>
<clipPath id="clip0_1164_1466">
<rect width="56" height="56" fill="white"/>
</clipPath>
</defs>
</svg>
