<svg width="59" height="63" viewBox="0 0 59 63" fill="none" xmlns="http://www.w3.org/2000/svg">
<path d="M53.9186 26.1265L52.537 22.6689L50.0873 16.5375C47.9842 11.2748 42.968 7.875 37.3052 7.875H21.6948C16.0333 7.875 11.0158 11.2748 8.91269 16.5375L6.46296 22.6689L5.08138 26.1265C2.11662 27.2549 0 30.1046 0 33.4688V39.375C0 41.3585 0.757167 43.1488 1.96667 44.5344V51.1875C1.96667 53.3617 3.72806 55.125 5.9 55.125H9.83333C12.0053 55.125 13.7667 53.3617 13.7667 51.1875V47.25H45.2333V51.1875C45.2333 53.3617 46.9947 55.125 49.1667 55.125H53.1C55.2719 55.125 57.0333 53.3617 57.0333 51.1875V44.5344C58.2428 43.1501 59 41.3597 59 39.375V33.4688C59 30.1046 56.8834 27.2549 53.9186 26.1265ZM16.2164 19.4623C17.1125 17.2204 19.2819 15.75 21.6948 15.75H37.3052C39.7181 15.75 41.8875 17.2204 42.7836 19.4623L45.2333 25.5938H13.7667L16.2164 19.4623ZM9.83333 39.3504C7.47333 39.3504 5.9 37.7803 5.9 35.4252C5.9 33.0701 7.47333 31.5 9.83333 31.5C12.1933 31.5 15.7333 35.0327 15.7333 37.3878C15.7333 39.7429 12.1933 39.3504 9.83333 39.3504ZM49.1667 39.3504C46.8067 39.3504 43.2667 39.7429 43.2667 37.3878C43.2667 35.0327 46.8067 31.5 49.1667 31.5C51.5267 31.5 53.1 33.0701 53.1 35.4252C53.1 37.7803 51.5267 39.3504 49.1667 39.3504Z" fill="black"/>
</svg>
