<svg width="41" height="55" viewBox="0 0 41 55" fill="none" xmlns="http://www.w3.org/2000/svg">
<path d="M8.54158 0C4.77257 0 1.70825 3.08301 1.70825 6.875V48.125C1.70825 51.917 4.77257 55 8.54158 55H32.4583C36.2273 55 39.2916 51.917 39.2916 48.125V6.875C39.2916 3.08301 36.2273 0 32.4583 0H8.54158ZM16.2291 44.6875H24.7708C26.1908 44.6875 27.3333 45.8369 27.3333 47.2656C27.3333 48.6943 26.1908 49.8438 24.7708 49.8438H16.2291C14.809 49.8438 13.6666 48.6943 13.6666 47.2656C13.6666 45.8369 14.809 44.6875 16.2291 44.6875Z" fill="black"/>
</svg>
