<svg width="69" height="69" viewBox="0 0 69 69" fill="none" xmlns="http://www.w3.org/2000/svg">
<path d="M34.4999 4.92859C18.1691 4.92859 4.92847 18.1692 4.92847 34.5C4.92847 50.8308 18.1691 64.0714 34.4999 64.0714C50.8307 64.0714 64.0713 50.8308 64.0713 34.5C64.0713 18.1692 50.8307 4.92859 34.4999 4.92859ZM30.1874 22.1786C30.6776 22.1786 31.1477 22.3733 31.4943 22.7199C31.8409 23.0665 32.0356 23.5366 32.0356 24.0268V44.9732C32.0356 45.4634 31.8409 45.9335 31.4943 46.2801C31.1477 46.6267 30.6776 46.8214 30.1874 46.8214C29.6972 46.8214 29.2271 46.6267 28.8805 46.2801C28.5339 45.9335 28.3392 45.4634 28.3392 44.9732V24.0268C28.3392 23.5366 28.5339 23.0665 28.8805 22.7199C29.2271 22.3733 29.6972 22.1786 30.1874 22.1786ZM40.6606 28.9554V40.0447C40.6606 40.5348 40.4659 41.0049 40.1193 41.3515C39.7727 41.6982 39.3026 41.8929 38.8124 41.8929C38.3222 41.8929 37.8521 41.6982 37.5055 41.3515C37.1589 41.0049 36.9642 40.5348 36.9642 40.0447V28.9554C36.9642 28.4652 37.1589 27.9951 37.5055 27.6485C37.8521 27.3019 38.3222 27.1072 38.8124 27.1072C39.3026 27.1072 39.7727 27.3019 40.1193 27.6485C40.4659 27.9951 40.6606 28.4652 40.6606 28.9554ZM47.4374 22.1786C47.9276 22.1786 48.3977 22.3733 48.7443 22.7199C49.0909 23.0665 49.2856 23.5366 49.2856 24.0268V44.9732C49.2856 45.4634 49.0909 45.9335 48.7443 46.2801C48.3977 46.6267 47.9276 46.8214 47.4374 46.8214C46.9472 46.8214 46.4771 46.6267 46.1305 46.2801C45.7839 45.9335 45.5892 45.4634 45.5892 44.9732V24.0268C45.5892 23.5366 45.7839 23.0665 46.1305 22.7199C46.4771 22.3733 46.9472 22.1786 47.4374 22.1786ZM23.4106 30.1875V38.8125C23.4106 39.3027 23.2159 39.7728 22.8693 40.1194C22.5227 40.466 22.0526 40.6607 21.5624 40.6607C21.0722 40.6607 20.6021 40.466 20.2555 40.1194C19.9089 39.7728 19.7142 39.3027 19.7142 38.8125V30.1875C19.7142 29.6973 19.9089 29.2272 20.2555 28.8806C20.6021 28.534 21.0722 28.3393 21.5624 28.3393C22.0526 28.3393 22.5227 28.534 22.8693 28.8806C23.2159 29.2272 23.4106 29.6973 23.4106 30.1875Z" fill="black"/>
</svg>
