<svg width="63" height="63" viewBox="0 0 63 63" fill="none" xmlns="http://www.w3.org/2000/svg">
<path d="M34.125 5.25V26.25H55.125C55.125 14.6475 45.7275 5.25 34.125 5.25ZM50.715 41.7113C53.5742 38.0434 55.1263 33.5256 55.125 28.875H16.905L14.4112 23.625H5.25V28.875H11.0775C11.0775 28.875 16.0388 39.5588 16.6425 40.4775C13.755 42.0262 11.8125 45.0713 11.8125 48.5625C11.8125 53.6287 15.9338 57.75 21 57.75C25.62 57.75 29.4525 54.3375 30.0825 49.875H35.5425C36.1725 54.3375 40.005 57.75 44.625 57.75C49.6912 57.75 53.8125 53.6287 53.8125 48.5625C53.8125 45.8325 52.605 43.3913 50.715 41.7113ZM21 52.5C18.8212 52.5 17.0625 50.7412 17.0625 48.5625C17.0625 46.3838 18.8212 44.625 21 44.625C23.1787 44.625 24.9375 46.3838 24.9375 48.5625C24.9375 50.7412 23.1787 52.5 21 52.5ZM44.625 52.5C42.4463 52.5 40.6875 50.7412 40.6875 48.5625C40.6875 46.3838 42.4463 44.625 44.625 44.625C46.8037 44.625 48.5625 46.3838 48.5625 48.5625C48.5625 50.7412 46.8037 52.5 44.625 52.5Z" fill="black"/>
</svg>
