<svg width="78" height="78" viewBox="0 0 78 78" fill="none" xmlns="http://www.w3.org/2000/svg">
<path d="M73.8816 23.01C74.0064 23.4624 73.8488 23.9616 73.5852 24.3516L65.1768 36.8628C64.8648 37.3464 64.2096 37.6116 63.662 37.6116C63.506 37.6116 63.0692 37.5804 62.8992 37.5336L56.16 35.88V65.52C56.16 66.4248 55.5204 67.08 54.6 67.08H21.84C20.9196 67.08 20.28 66.4248 20.28 65.52V35.88L14.2272 37.5492C13.5252 37.7676 12.9168 37.4868 12.5268 36.8784L4.18076 24.3984C3.91556 23.9928 3.83756 23.5404 3.96236 23.088C4.07156 22.62 4.39916 22.308 4.82036 22.0896L21.84 14.04H29.64C30.5604 14.04 31.2 14.6796 31.2 15.6C31.2 18.8136 35.7084 21.0912 38.922 21.0912C42.1356 21.0912 46.8 18.8292 46.8 15.6C46.8 14.6952 47.4396 14.04 48.36 14.04H56.16L73.008 21.9336C73.4448 22.152 73.7568 22.542 73.8816 23.01Z" fill="black"/>
</svg>
