<svg width="70" height="70" viewBox="0 0 70 70" fill="none" xmlns="http://www.w3.org/2000/svg">
<path d="M45.9375 55.7959C43.5167 55.7959 41.5625 53.3459 41.5625 50.3126C41.5625 47.3084 43.5167 44.8584 45.9375 44.8584C48.3584 44.8584 50.3125 47.3084 50.3125 50.3126C50.3125 53.3459 48.3584 55.7959 45.9375 55.7959ZM35 32.8126C31.3834 32.8126 28.4375 30.3626 28.4375 27.3584C28.4375 24.3251 31.3834 21.8751 35 21.8751C38.6167 21.8751 41.5625 24.3251 41.5625 27.3584C41.5625 30.3626 38.6167 32.8126 35 32.8126ZM24.0625 55.7959C21.6417 55.7959 19.6875 53.3459 19.6875 50.3126C19.6875 47.3084 21.6417 44.8584 24.0625 44.8584C26.4834 44.8584 28.4375 47.3084 28.4375 50.3126C28.4375 53.3459 26.4834 55.7959 24.0625 55.7959ZM35 24.0626C36.1959 24.0626 37.1875 25.0542 37.1875 26.2501C37.1875 27.4459 36.1959 28.4376 35 28.4376C33.8042 28.4376 32.8125 27.4459 32.8125 26.2501C32.8125 25.0542 33.8042 24.0626 35 24.0626ZM54.6875 35.0001C53.7542 35.0001 52.85 35.2042 52.0334 35.5834C50.6334 33.8042 48.7375 32.2876 46.4625 31.1209C48.125 28.7876 49.1167 25.9584 49.1167 22.8959V22.7209C52.2959 22.0501 54.6875 19.2209 54.6875 15.8084C54.6875 11.9292 51.5084 8.75006 47.6292 8.75006C45.6167 8.75006 43.75 9.59589 42.525 10.9376C40.2756 9.50792 37.6654 8.74866 35 8.74866C32.3347 8.74866 29.7245 9.50792 27.475 10.9376C26.25 9.59589 24.3834 8.75006 22.3709 8.75006C18.4917 8.75006 15.3125 11.9292 15.3125 15.8084C15.3125 19.1917 17.7042 22.0209 20.8542 22.7209V22.8959C20.8542 25.9584 21.875 28.8167 23.5084 31.1209C21.2625 32.2876 19.3667 33.8042 17.9667 35.5834C16.97 35.1344 15.8765 34.9427 14.7865 35.0258C13.6965 35.109 12.6447 35.4643 11.7276 36.0592C10.8105 36.6542 10.0574 37.4698 9.53715 38.4312C9.01694 39.3927 8.7463 40.4694 8.75004 41.5626C8.75004 45.2084 11.6667 48.1251 15.3125 48.1251H15.4875C15.3709 48.8251 15.3125 49.5834 15.3125 50.3126C15.3125 56.3501 19.2209 61.2501 24.0625 61.2501C27.0084 61.2501 29.6042 59.4126 31.2084 56.6126C32.4334 56.7876 33.6875 56.8751 35 56.8751C36.3125 56.8751 37.5667 56.7876 38.7917 56.6126C40.3959 59.4126 42.9917 61.2501 45.9375 61.2501C50.7792 61.2501 54.6875 56.3501 54.6875 50.3126C54.6875 49.5834 54.6292 48.8251 54.5125 48.1251H54.6875C58.3334 48.1251 61.25 45.2084 61.25 41.5626C61.25 37.9167 58.3334 35.0001 54.6875 35.0001Z" fill="black"/>
</svg>
