<svg width="59" height="59" viewBox="0 0 59 59" fill="none" xmlns="http://www.w3.org/2000/svg">
<g clip-path="url(#clip0_1155_1443)">
<path d="M54.87 0.221211C54.6487 0.221211 54.575 0.368711 54.4275 0.442461L26.7712 20.06C26.4762 20.2812 26.0337 20.8712 25.8125 21.24L24.8537 23.0837C30.1637 24.78 34.22 28.8362 35.9162 34.1462L37.76 33.1875C38.1287 32.9662 38.645 32.5975 38.94 32.2287L58.5575 4.57246C58.7787 4.20371 58.8525 3.90871 58.5575 3.61371L55.3125 0.368711C55.165 0.221211 55.0175 0.147461 54.87 0.147461V0.221211ZM19.6175 29.5C14.16 29.5 9.95623 33.9987 9.95623 39.3825C9.95623 46.6837 5.89998 53.0262 0.0737305 56.4187C2.94998 58.0412 6.41623 58.9262 9.95623 58.9262C20.7975 58.9262 29.5737 50.2237 29.5737 39.3087C29.5737 33.8512 25.075 29.4262 19.6912 29.4262L19.6175 29.5Z" fill="black"/>
</g>
<defs>
<clipPath id="clip0_1155_1443">
<rect width="59" height="59" fill="white"/>
</clipPath>
</defs>
</svg>
