<svg width="63" height="63" viewBox="0 0 63 63" fill="none" xmlns="http://www.w3.org/2000/svg">
<g clip-path="url(#clip0_1164_1458)">
<path d="M16.3062 19.7442C16.0348 19.3003 15.8585 18.8049 15.7886 18.2893C15.7187 17.7738 15.7567 17.2493 15.9002 16.7492C15.9976 16.334 16.1639 15.938 16.3923 15.5778L21.6563 8.04732V1.9688C21.6557 1.69891 21.7106 1.43178 21.8176 1.184C21.9246 0.936225 22.0814 0.713092 22.2782 0.528464C22.4751 0.343835 22.7078 0.201655 22.962 0.110754C23.2161 0.0198526 23.4862 -0.0178277 23.7555 5.32418e-05C24.2626 0.0435982 24.7343 0.277856 25.0755 0.655567C25.4167 1.03328 25.6019 1.52633 25.5938 2.03525V7.97841L26.8858 9.59771C27.4482 10.3031 28.1653 10.8697 28.9816 11.2537C29.7979 11.6378 30.6916 11.829 31.5936 11.8126C32.4843 11.7874 33.3586 11.5664 34.1544 11.1653C34.9501 10.7642 35.6478 10.1929 36.198 9.49189L37.4063 7.97841V1.9688C37.4057 1.69891 37.4606 1.43178 37.5676 1.184C37.6746 0.936225 37.8314 0.713092 38.0283 0.528464C38.2251 0.343835 38.4578 0.201655 38.712 0.110754C38.9661 0.0198526 39.2362 -0.0178277 39.5055 5.32418e-05C40.0126 0.0435982 40.4843 0.277856 40.8255 0.655567C41.1667 1.03328 41.3519 1.52633 41.3438 2.03525V8.04732L46.6151 15.5778C46.8435 15.938 47.0099 16.334 47.1073 16.7492C47.2508 17.2493 47.2888 17.7738 47.2189 18.2893C47.149 18.8049 46.9727 19.3003 46.7013 19.7442C46.6915 19.7584 46.6824 19.7732 46.6742 19.7885L43.2633 25.1385C43.1738 25.279 43.05 25.3945 42.9037 25.4741C42.7574 25.5537 42.5932 25.5949 42.4266 25.5938H20.5735C20.4081 25.5937 20.2455 25.5519 20.1005 25.4723C19.9556 25.3928 19.833 25.278 19.7441 25.1385L16.3333 19.7885C16.325 19.7732 16.316 19.7584 16.3062 19.7442ZM52.8511 51.6281C52.8409 51.5993 52.8286 51.5713 52.8142 51.5444L42.7441 30.0973C42.6645 29.9278 42.5381 29.7844 42.3799 29.6842C42.2216 29.5839 42.0381 29.5309 41.8507 29.5313H21.1493C20.962 29.5309 20.7785 29.5839 20.6202 29.6842C20.462 29.7844 20.3356 29.9278 20.256 30.0973L10.1859 51.5444C10.1715 51.5713 10.1592 51.5993 10.1489 51.6281C9.93442 52.1457 9.83143 52.7028 9.84669 53.263C9.86196 53.8231 9.99514 54.3737 10.2375 54.879C10.5609 55.5435 11.0647 56.1036 11.6913 56.4953C12.318 56.887 13.0423 57.0944 13.7813 57.0938H49.2188C49.9574 57.0939 50.6811 56.8863 51.3073 56.4946C51.9335 56.103 52.437 55.5431 52.7601 54.879C53.0029 54.3739 53.1365 53.8234 53.1522 53.2632C53.1679 52.7031 53.0653 52.1459 52.8511 51.6281Z" fill="black"/>
</g>
<defs>
<clipPath id="clip0_1164_1458">
<rect width="63" height="63" fill="white"/>
</clipPath>
</defs>
</svg>
