<svg width="94" height="94" viewBox="0 0 94 94" fill="none" xmlns="http://www.w3.org/2000/svg">
<path d="M54.5313 16.7174C48.6329 15.1369 42.3983 15.341 36.6158 17.3039C30.8334 19.2667 25.7629 22.9002 22.0455 27.7448C18.3281 32.5894 16.1308 38.4276 15.7314 44.521C15.332 50.6144 16.7485 56.6894 19.8017 61.9778C22.855 67.2662 27.4079 71.5304 32.8846 74.2313C38.3614 76.9321 44.516 77.9482 50.5703 77.1512C56.6245 76.3541 62.3065 73.7797 66.8976 69.7534C71.4887 65.7271 74.7828 60.4298 76.3632 54.5314C78.4735 46.6221 77.3601 38.1988 73.2671 31.1096C69.1742 24.0204 62.436 18.8444 54.5313 16.7174ZM53.7995 28.6246L62.2184 25.6402C65.8492 28.3702 68.7093 31.9959 70.5187 36.1626L66.1547 43.2732C66.0973 43.2579 66.0294 43.2704 65.9667 43.2751L58.8535 43.6466C58.7469 43.6521 58.6408 43.6647 58.536 43.6844L51.8602 35.8624L53.7995 28.6246ZM43.4213 20.6035L49.2114 27.3952L47.272 34.633L37.5708 38.0791C37.4899 38.0096 37.4043 37.9456 37.3148 37.8876L31.3403 34.0093C31.2883 33.9739 31.2319 33.9434 31.1784 33.9137L30.9543 25.5737C34.609 22.8644 38.9051 21.1517 43.4213 20.6035ZM29.7746 56.6224L21.6478 54.4448C20.26 50.1087 20.0375 45.4838 21.0028 41.0345L28.6085 37.8844C28.6564 37.9229 28.7063 37.9588 28.7579 37.9921L34.7345 41.874C34.815 41.9238 34.8984 41.9688 34.9842 42.0086L35.6642 51.8476C35.6073 51.8877 35.5505 51.9278 35.4957 51.9715L29.961 56.4541C29.8959 56.5069 29.8337 56.5631 29.7746 56.6224ZM46.5157 72.6583C41.948 72.6514 37.4617 71.4493 33.5026 69.1714L32.7999 60.2545C32.8495 60.2186 32.9012 60.1863 32.9487 60.1468L38.487 55.6621C38.5517 55.6103 38.6137 55.5551 38.6727 55.4967L48.8756 58.2306C48.8975 58.3106 48.9236 58.3894 48.9537 58.4667L51.5077 65.1197C51.5291 65.1777 51.5577 65.2314 51.5827 65.2873L46.5157 72.6583ZM56.0211 63.6459C55.9995 63.5649 55.9737 63.4852 55.9437 63.407L53.3866 56.7654C53.3611 56.7001 53.3319 56.637 53.3027 56.5739L58.8111 48.393C58.9054 48.4014 59.0001 48.4042 59.0947 48.4013L66.2115 48.0278C66.2729 48.0248 66.334 48.0186 66.3947 48.0092L71.4064 54.5402C70.0177 58.876 67.5126 62.77 64.1427 65.8313L56.0211 63.6459Z" fill="black"/>
</svg>
