<svg width="69" height="69" viewBox="0 0 69 69" fill="none" xmlns="http://www.w3.org/2000/svg">
<path d="M20.1191 11.5V31.625L34.4941 24.4375L48.8691 31.625V11.5H57.4941C58.2566 11.5 58.9879 11.8029 59.5271 12.3421C60.0662 12.8812 60.3691 13.6125 60.3691 14.375V60.375C60.3691 61.1375 60.0662 61.8688 59.5271 62.4079C58.9879 62.9471 58.2566 63.25 57.4941 63.25H11.4941C10.7316 63.25 10.0004 62.9471 9.46121 62.4079C8.92204 61.8688 8.61914 61.1375 8.61914 60.375V14.375C8.61914 13.6125 8.92204 12.8812 9.46121 12.3421C10.0004 11.8029 10.7316 11.5 11.4941 11.5H20.1191ZM34.4941 23L21.5566 8.625H47.4316L34.4941 23ZM37.3691 32.3035L34.4941 30.866L31.6191 32.3035V57.5H37.3691V32.3035ZM43.1191 40.25V46H54.6191V40.25H43.1191Z" fill="black"/>
</svg>
