<svg width="65" height="65" viewBox="0 0 65 65" fill="none" xmlns="http://www.w3.org/2000/svg">
<path d="M32.668 59.5834H32.3321C30.2738 59.5834 29.2474 59.5834 28.3536 59.1771C27.4599 58.7736 26.818 58.018 25.5342 56.5067L19.083 48.9152C17.8236 47.4338 17.1953 46.6944 16.8676 45.8142C16.5426 44.9367 16.5426 43.9861 16.5426 42.0875V27.8336C16.5426 25.9784 16.5426 25.0521 16.1417 24.2369C15.7436 23.4217 14.9961 22.8177 13.5011 21.6098L12.9378 21.1575C9.73652 18.5738 8.13589 17.2792 8.12506 15.4105C8.11423 13.5417 9.53339 12.3663 12.3717 10.0209C12.8051 9.65976 13.2276 9.33115 13.6392 9.03503C15.1911 7.92462 17.4363 6.69774 19.018 5.87712C19.602 5.58162 20.2461 5.42405 20.9006 5.41654C21.5552 5.40903 22.2027 5.55177 22.7934 5.83378L23.5084 6.16962C23.6998 6.2599 23.8542 6.38809 23.9715 6.5542C28.0286 12.285 36.9715 12.285 41.0286 6.5542C41.1475 6.38848 41.307 6.25606 41.4917 6.16962L42.2067 5.83378C42.7974 5.55177 43.445 5.40903 44.0995 5.41654C44.754 5.42405 45.3981 5.58162 45.9821 5.87712C47.5638 6.69774 49.809 7.92462 51.3609 9.03503C51.7762 9.33476 52.1987 9.66246 52.6284 10.0182C55.4667 12.3663 56.8859 13.5417 56.8751 15.4105C56.8642 17.2792 55.2609 18.5738 52.0624 21.1575L51.499 21.6098C50.004 22.8177 49.2565 23.4217 48.8584 24.2369C48.4603 25.0521 48.4603 25.9784 48.4603 27.8336V42.0875C48.4603 43.9861 48.4603 44.9367 48.1326 45.8142C47.8076 46.6917 47.1765 47.4338 45.9171 48.9152L39.4659 56.5067C38.1821 58.018 37.5403 58.7736 36.6465 59.1798C35.7528 59.5834 34.7236 59.5834 32.668 59.5834Z" fill="black"/>
</svg>
