<svg width="77" height="76" viewBox="0 0 77 76" fill="none" xmlns="http://www.w3.org/2000/svg">
<path d="M6.41675 39.5834C6.41675 39.1635 6.58576 38.7607 6.8866 38.4638C7.18744 38.1669 7.59546 38.0001 8.02091 38.0001H24.0626C24.488 38.0001 24.8961 38.1669 25.1969 38.4638C25.4977 38.7607 25.6667 39.1635 25.6667 39.5834V57.0001C25.6667 59.5196 24.6527 61.936 22.8477 63.7176C21.0426 65.4992 18.5945 66.5 16.0417 66.5C13.489 66.5 11.0409 65.4992 9.23585 63.7176C7.43081 61.936 6.41675 59.5196 6.41675 57.0001V39.5834ZM9.62508 33.2501H22.4584V19.0001C22.4587 18.4602 22.3191 17.9293 22.0529 17.4577C21.7868 16.986 21.4029 16.5894 20.9378 16.3054C20.4726 16.0215 19.9416 15.8596 19.3952 15.8352C18.8489 15.8107 18.3052 15.9246 17.816 16.1659L11.3993 19.3326C10.866 19.5956 10.4174 20.0001 10.1041 20.5007C9.79066 21.0013 9.6248 21.5783 9.62508 22.1667V33.2501ZM35.2917 33.2501C35.2917 28.6309 37.1509 24.2009 40.4601 20.9346C43.7693 17.6684 48.2576 15.8334 52.9376 15.8334C57.6175 15.8334 62.1058 17.6684 65.4151 20.9346C68.7243 24.2009 70.5834 28.6309 70.5834 33.2501C70.5834 37.8692 68.7243 42.2992 65.4151 45.5655C62.1058 48.8318 57.6175 50.6667 52.9376 50.6667C48.2576 50.6667 43.7693 48.8318 40.4601 45.5655C37.1509 42.2992 35.2917 37.8692 35.2917 33.2501ZM50.5313 56.0817C52.1309 56.2519 53.7443 56.2519 55.3438 56.0817V61.7501H62.5626C63.2008 61.7501 63.8128 62.0003 64.2641 62.4457C64.7153 62.8911 64.9688 63.4952 64.9688 64.1251C64.9688 64.7549 64.7153 65.359 64.2641 65.8044C63.8128 66.2498 63.2008 66.5 62.5626 66.5H43.3126C42.6744 66.5 42.0624 66.2498 41.6111 65.8044C41.1598 65.359 40.9063 64.7549 40.9063 64.1251C40.9063 63.4952 41.1598 62.8911 41.6111 62.4457C42.0624 62.0003 42.6744 61.7501 43.3126 61.7501H50.5313V56.0817Z" fill="black"/>
</svg>
