<svg width="70" height="70" viewBox="0 0 70 70" fill="none" xmlns="http://www.w3.org/2000/svg">
<path d="M29.7092 6.23876C30.2043 6.54122 30.5589 7.02796 30.6951 7.59189C30.8313 8.15583 30.7379 8.75077 30.4355 9.24584C30.2126 9.60928 30.1187 10.0372 30.1689 10.4606C30.2192 10.884 30.4107 11.2781 30.7125 11.5792L30.9984 11.8621C32.7134 13.58 33.3463 16.1029 32.6463 18.4246C32.4728 18.9728 32.0905 19.4307 31.582 19.6992C31.0735 19.9676 30.4797 20.0251 29.9292 19.859C29.3787 19.693 28.9156 19.3169 28.6403 18.8121C28.365 18.3073 28.2995 17.7144 28.458 17.1617C28.5733 16.7783 28.5827 16.3709 28.4851 15.9827C28.3875 15.5945 28.1867 15.2399 27.9038 14.9567L27.6209 14.6708C26.6255 13.6756 25.994 12.3744 25.8279 10.9766C25.6617 9.57885 25.9707 8.16586 26.705 6.96501C26.8546 6.71964 27.051 6.50613 27.283 6.33669C27.5151 6.16724 27.7783 6.04517 28.0575 5.97746C28.3368 5.90975 28.6266 5.89771 28.9105 5.94205C29.1944 5.98638 29.4668 6.08621 29.7121 6.23584M51.5959 13.7696C52.1643 13.8843 52.664 14.2199 52.9851 14.7029C53.3061 15.1858 53.4223 15.7765 53.308 16.345L52.888 18.445C52.3105 21.3325 50.228 23.695 47.4338 24.6254C46.1271 25.0629 45.153 26.1625 44.8846 27.5129L44.4646 29.6129C44.4083 29.8946 44.2971 30.1625 44.1373 30.4012C43.9774 30.6399 43.7722 30.8449 43.5331 31.0042C43.2941 31.1636 43.0261 31.2744 42.7442 31.3302C42.4624 31.386 42.1724 31.3857 41.8907 31.3294C41.609 31.2731 41.3411 31.1618 41.1024 31.002C40.8636 30.8422 40.6587 30.6369 40.4994 30.3979C40.34 30.1589 40.2292 29.8908 40.1734 29.609C40.1176 29.3272 40.1179 29.0371 40.1742 28.7554L40.5942 26.6554C41.1717 23.765 43.2542 21.4054 46.0484 20.4721C47.355 20.0404 48.3292 18.9379 48.6005 17.5846L49.0175 15.4846C49.074 15.2029 49.1854 14.935 49.3454 14.6963C49.5054 14.4576 49.7108 14.2528 49.95 14.0936C50.1891 13.9343 50.4573 13.8237 50.7392 13.7681C51.0211 13.7125 51.3112 13.713 51.593 13.7696M62.443 39.55C61.9264 39.3228 61.3555 39.2488 60.7981 39.3367C60.2408 39.4246 59.7203 39.6707 59.2988 40.0458C58.148 41.0673 56.7047 41.7002 55.1737 41.8547C53.6428 42.0092 52.1021 41.6773 50.7705 40.9063L50.1492 40.5504C49.9002 40.4068 49.682 40.2155 49.507 39.9876C49.3319 39.7596 49.2035 39.4994 49.129 39.2217C49.0545 38.9441 49.0355 38.6546 49.0729 38.3696C49.1103 38.0846 49.2035 37.8098 49.3471 37.5608C49.4908 37.3119 49.682 37.0936 49.91 36.9186C50.138 36.7435 50.3982 36.6151 50.6758 36.5406C50.9534 36.4662 51.243 36.4471 51.528 36.4845C51.8129 36.5219 52.0877 36.6151 52.3367 36.7588L52.958 37.1175C54.0605 37.7533 55.443 37.6133 56.3967 36.7704C57.4429 35.8419 58.7331 35.2325 60.1148 35.0144C61.4964 34.7962 62.9117 34.9785 64.193 35.5396L65.0446 35.91C65.5764 36.1425 65.9941 36.5767 66.2058 37.1171C66.4175 37.6575 66.4058 38.2599 66.1734 38.7917C65.9409 39.3235 65.5067 39.7412 64.9663 39.9529C64.4259 40.1645 63.8235 40.1529 63.2917 39.9204L62.443 39.55ZM20.2067 11.4917C20.3523 11.3465 20.525 11.2314 20.715 11.153C20.905 11.0746 21.1086 11.0344 21.3142 11.0347C21.5198 11.0349 21.7233 11.0757 21.9131 11.1546C22.1029 11.2335 22.2753 11.349 22.4205 11.4946C22.5656 11.6401 22.6807 11.8129 22.7591 12.0029C22.8375 12.1929 22.8778 12.3965 22.8775 12.6021C22.8772 12.8076 22.8365 13.0111 22.7575 13.201C22.6786 13.3908 22.5631 13.5632 22.4175 13.7083C22.1236 14.0015 21.7252 14.1659 21.3101 14.1654C20.8949 14.1648 20.497 13.9994 20.2038 13.7054C19.9106 13.4115 19.7462 13.0131 19.7468 12.5979C19.7473 12.1828 19.9128 11.7849 20.2067 11.4917ZM37.6717 20.8746C37.5264 20.7292 37.3538 20.6139 37.1639 20.5353C36.974 20.4566 36.7704 20.4161 36.5648 20.4161C36.3593 20.4161 36.1557 20.4566 35.9658 20.5353C35.7759 20.6139 35.6033 20.7292 35.458 20.8746C35.3126 21.0199 35.1973 21.1925 35.1186 21.3824C35.04 21.5723 34.9995 21.7759 34.9995 21.9815C34.9995 22.187 35.04 22.3906 35.1186 22.5805C35.1973 22.7704 35.3126 22.943 35.458 23.0883C35.6035 23.2337 35.7763 23.349 35.9664 23.4276C36.1565 23.5062 36.3602 23.5465 36.5659 23.5464C36.7716 23.5463 36.9752 23.5056 37.1652 23.4268C37.3552 23.3479 37.5278 23.2324 37.6732 23.0869C37.8185 22.9413 37.9338 22.7686 38.0124 22.5785C38.091 22.3884 38.1314 22.1847 38.1312 21.979C38.1311 21.7733 38.0904 21.5696 38.0116 21.3796C37.9328 21.1896 37.8173 21.0199 37.6717 20.8746ZM50.0413 29.6246C50.1865 29.4792 50.3588 29.3639 50.5486 29.2852C50.7383 29.2064 50.9417 29.1658 51.1471 29.1657C51.3526 29.1655 51.556 29.2059 51.7459 29.2844C51.9357 29.3629 52.1082 29.478 52.2536 29.6231C52.3989 29.7683 52.5143 29.9407 52.593 30.1304C52.6718 30.3202 52.7124 30.5235 52.7125 30.729C52.7126 30.9344 52.6723 31.1379 52.5938 31.3277C52.5153 31.5175 52.4002 31.6901 52.255 31.8354C51.9619 32.129 51.5641 32.2941 51.1492 32.2943C50.7343 32.2946 50.3363 32.1301 50.0428 31.8369C49.7492 31.5437 49.5841 31.1459 49.5838 30.731C49.5836 30.3162 49.7481 29.9181 50.0413 29.6246ZM57.7996 44.6629C57.5061 44.3694 57.1079 44.2044 56.6928 44.2044C56.2776 44.2044 55.8794 44.3694 55.5859 44.6629C55.2923 44.9565 55.1274 45.3546 55.1274 45.7698C55.1274 46.185 55.2923 46.5831 55.5859 46.8767C55.7312 47.022 55.9038 47.1373 56.0937 47.216C56.2836 47.2947 56.4872 47.3352 56.6928 47.3352C56.8983 47.3352 57.1019 47.2947 57.2918 47.216C57.4817 47.1373 57.6543 47.022 57.7996 46.8767C57.945 46.7313 58.0603 46.5588 58.139 46.3688C58.2176 46.1789 58.2581 45.9754 58.2581 45.7698C58.2581 45.5642 58.2176 45.3607 58.139 45.1708C58.0603 44.9808 57.945 44.8083 57.7996 44.6629ZM21.7934 59.0363C15.1959 61.2121 13.624 60.9583 11.7019 59.0363C9.57275 56.9071 9.01254 54.0371 11.7017 45.9725L16.6309 31.1879C18.4742 25.6579 19.5563 22.4088 21.3617 21.0904L21.3471 21.1663C21.2028 21.874 21.0686 22.5838 20.9446 23.2954C20.607 25.1746 20.3055 27.0601 20.0405 28.9508C19.4105 33.4221 18.83 39.1358 19.1305 43.7004C19.3113 46.4625 19.8859 49.8896 20.3992 52.5671C20.6805 54.0328 20.9839 55.4942 21.3092 56.9508L21.3675 57.2221L21.7934 59.0363ZM38.0305 53.6258L38.8092 53.3663C45.5117 51.1321 48.863 50.015 49.4842 47.3725C50.1113 44.73 47.6117 42.2304 42.6155 37.2342L37.6892 32.3079L37.6746 32.3517L37.4355 33.1304C37.2371 33.8013 36.9688 34.7346 36.7034 35.8021C36.158 37.9867 35.6621 40.5329 35.6621 42.4521C35.6621 44.3713 36.158 46.9175 36.7034 49.1021C37.0116 50.3307 37.3579 51.5495 37.7417 52.7567L37.7563 52.8063L37.7621 52.8179L38.0305 53.6258ZM25.6667 21.8867L25.8125 21.1721C27.6005 22.2221 29.718 24.3367 32.76 27.3817L34.2271 28.8458L33.6088 30.7125L33.5796 30.7942L33.5067 31.0275L33.2442 31.8763C33.0313 32.5938 32.7455 33.5971 32.4567 34.7433C31.8967 36.9863 31.2871 39.9671 31.2871 42.4521C31.2871 44.9371 31.8996 47.9179 32.4567 50.1608C32.7888 51.4889 33.1633 52.8059 33.5796 54.11L33.88 55.0113L25.9613 57.6508L25.6492 56.3092L25.6346 56.245L25.5763 55.9913L25.3634 55.0288C25.1884 54.2063 24.9463 53.0571 24.6925 51.7446C24.188 49.0992 23.6571 45.8938 23.4967 43.4146C23.2255 39.3196 23.7505 33.9763 24.3717 29.5604C24.7278 27.0395 25.1499 24.5284 25.6375 22.0296L25.658 21.9217L25.6638 21.8925L25.6667 21.8867ZM43.6159 6.44584C44.0563 6.38751 44.8642 6.35834 45.503 7.00001C46.1417 7.64168 46.1155 8.44668 46.0571 8.89001C45.9751 9.36209 45.864 9.82867 45.7246 10.2871L45.6196 10.6546L45.8092 10.9521C46.063 11.3575 46.3371 11.7921 46.5063 12.1771C46.6959 12.6146 46.9117 13.3496 46.5063 14.1196C46.1067 14.8779 45.3921 15.1288 44.94 15.2308C44.5259 15.3242 44.0096 15.365 43.5196 15.4058L43.1492 15.435H43.1171L42.8488 15.7617C42.528 16.1496 42.1984 16.5521 41.8863 16.8408C41.5538 17.1413 40.9296 17.6079 40.0634 17.4913C39.168 17.3688 38.7013 16.7183 38.4767 16.3129C38.2633 15.8929 38.08 15.4582 37.9284 15.0121L37.8117 14.6913L37.4909 14.5746C37.0459 14.4238 36.6121 14.2415 36.193 14.0292C35.7846 13.8017 35.1371 13.3379 35.0146 12.4425C34.898 11.5733 35.3646 10.9521 35.665 10.6196C35.9509 10.3075 36.3563 9.97793 36.7442 9.65709L37.0709 9.38876V9.35959L37.1 8.98626C37.138 8.49334 37.1788 7.97709 37.275 7.56584C37.3771 7.11084 37.625 6.39918 38.3834 5.99959C39.1563 5.59126 39.8913 5.81001 40.3259 5.99959C40.7138 6.16584 41.1484 6.44001 41.5509 6.69668L41.8513 6.88334L42.2188 6.78126C42.6971 6.64418 43.1959 6.50126 43.6159 6.44584ZM64.575 30.6017C65.9371 29.2396 66.4417 27.405 65.695 25.7892C65.1263 24.5642 63.983 23.7679 62.5742 23.4675C62.2767 22.0588 61.4776 20.9154 60.2526 20.3467C58.6367 19.6029 56.8021 20.1046 55.44 21.4696C54.6525 22.2571 54.2938 23.3158 54.1276 24.2608C53.9525 25.2233 53.9525 26.2442 54.008 27.1367C54.0788 28.2317 54.2378 29.3193 54.4834 30.3888C54.6146 30.9138 55.0434 31.4096 55.5684 31.5379H55.5742L55.653 31.5583C55.959 31.6315 56.2674 31.6947 56.5775 31.7479C57.1755 31.8529 58.0038 31.9783 58.905 32.0338C59.7975 32.0921 60.8184 32.0892 61.7809 31.9171C62.7259 31.7508 63.7846 31.3921 64.575 30.6046" fill="black"/>
</svg>
