<svg width="58" height="58" viewBox="0 0 58 58" fill="none" xmlns="http://www.w3.org/2000/svg">
<g clip-path="url(#clip0_1143_1758)">
<path fill-rule="evenodd" clip-rule="evenodd" d="M20.3331 7.42819L16.9443 18.7879C16.9443 18.7879 14.4669 27.3471 13.4436 35.7156C13.2986 37.1432 13.2212 38.5769 13.2116 40.0118C13.2116 45.5218 14.9806 48.1483 17.3461 49.6066C19.9976 51.2472 23.9333 51.7858 29 51.7858C34.0626 51.7858 38.0066 51.2472 40.6539 49.6066C43.0194 48.1442 44.7884 45.5218 44.7884 40.0118C44.7884 38.6446 44.7056 37.1946 44.5523 35.7115C43.5331 27.3429 41.0557 18.7879 41.0557 18.7879L37.6669 7.42819C34.8405 6.66049 31.9285 6.25264 29 6.21434C26.5143 6.21434 23.3781 6.60377 20.3331 7.42819ZM49.967 40.0118C49.967 38.8739 49.92 37.718 49.8261 36.5442L49.8096 36.3412L50.1824 36.2625C53.1114 35.6079 55.2574 34.1041 56.5541 31.9456C56.9573 31.2789 57.2734 30.5633 57.4946 29.8162C58.2569 27.3305 58.0746 24.5713 57.4946 22.0359C56.7715 19.0561 55.6114 16.1997 54.0519 13.5596C52.5811 11.0283 50.808 8.7332 49.0431 7.2542C46.3586 4.99634 42.7626 3.46348 39.2494 2.48577C35.9088 1.56709 32.4643 1.0798 29 1.03577C25.5355 1.08115 22.091 1.56984 18.7506 2.48991C15.2374 3.46348 11.6414 4.99634 8.95686 7.2542C7.192 8.7332 5.41886 11.0242 3.94814 13.5596C2.39006 16.1999 1.23132 19.0563 0.509571 22.0359C0.186421 23.4035 0.0155251 24.8026 0 26.2078C0 27.8111 0.252714 29.4019 0.890714 30.8643C2.12114 33.7022 4.59443 35.6411 8.19043 36.3412V36.3495L8.17386 36.5359V36.5442C8.07995 37.718 8.033 38.8739 8.033 40.0118C8.033 46.8143 10.3489 51.3715 14.6201 54.0146C18.6056 56.4755 23.8546 56.9643 29 56.9643C34.1454 56.9643 39.3944 56.4755 43.3757 54.0146C47.6511 51.3715 49.967 46.8143 49.967 40.0118ZM21.8619 23.0965C23.2911 23.0965 24.4511 24.2565 24.4511 25.6858V27.7158C24.4511 28.4025 24.1783 29.0611 23.6928 29.5467C23.2072 30.0323 22.5486 30.3051 21.8619 30.3051C21.1751 30.3051 20.5165 30.0323 20.031 29.5467C19.5454 29.0611 19.2726 28.4025 19.2726 27.7158V25.6858C19.2726 24.2565 20.4326 23.0965 21.8619 23.0965ZM36.1423 23.0965C37.5716 23.0965 38.7316 24.2565 38.7316 25.6858V27.7158C38.7316 28.4025 38.4588 29.0611 37.9732 29.5467C37.4876 30.0323 36.829 30.3051 36.1423 30.3051C35.4556 30.3051 34.797 30.0323 34.3114 29.5467C33.8258 29.0611 33.553 28.4025 33.553 27.7158V25.6858C33.553 24.2565 34.713 23.0965 36.1423 23.0965ZM24.1529 40.0201C24.911 41.7518 26.4563 43.0733 27.3346 43.6533C28.333 44.3162 29.667 44.3162 30.6654 43.6533C31.5437 43.0733 33.0931 41.7476 33.8471 40.0201C34.0261 39.6069 34.1019 39.1565 34.068 38.7076C34.034 38.2587 33.8914 37.8247 33.6524 37.4432C33.2816 36.8595 32.7145 36.4276 32.0533 36.2252C31.378 36.0181 30.2967 35.7943 29 35.7943C27.7033 35.7943 26.622 36.0181 25.9467 36.2252C25.2855 36.4276 24.7184 36.8595 24.3476 37.4432C24.1086 37.8247 23.966 38.2587 23.932 38.7076C23.8981 39.1565 23.9739 39.6069 24.1529 40.0201Z" fill="black"/>
</g>
<defs>
<clipPath id="clip0_1143_1758">
<rect width="58" height="58" rx="7" fill="white"/>
</clipPath>
</defs>
</svg>
