<svg width="70" height="70" viewBox="0 0 70 70" fill="none" xmlns="http://www.w3.org/2000/svg">
<path d="M16.3626 18.3021C15.6068 18.3021 14.882 18.6023 14.3476 19.1367C13.8132 19.6711 13.513 20.3959 13.513 21.1517C13.513 21.9074 13.8132 22.6322 14.3476 23.1666C14.882 23.701 15.6068 24.0012 16.3626 24.0012H20.3759C20.6617 24.0012 20.9184 24.1675 21.0322 24.4271L22.8551 28.9012C22.9187 29.009 22.9523 29.1319 22.9523 29.2571C22.9523 29.3822 22.9187 29.5051 22.8551 29.6129L21.8576 30.8671C21.7578 30.9909 21.6194 31.0776 21.4645 31.1136C21.3096 31.1495 21.1471 31.1326 21.003 31.0654C19.1089 30.1604 17.0355 29.6929 14.9363 29.6975C3.96965 29.7062 -2.87576 41.5829 2.61341 51.0767C8.10257 60.5704 21.8109 60.5558 27.2884 51.0562C27.9552 49.8904 28.4577 48.638 28.7817 47.3346C28.8149 47.179 28.9011 47.0398 29.0256 46.9408C29.1501 46.8418 29.3052 46.7893 29.4642 46.7921H30.6047C31.0538 46.7926 31.4968 46.6872 31.8976 46.4845C32.2985 46.2818 32.6459 45.9875 32.9117 45.6254L45.1063 28.9858C45.1802 28.8841 45.2801 28.8041 45.3956 28.7543C45.5111 28.7045 45.6379 28.6868 45.7626 28.7029C45.8993 28.7376 46.0219 28.8137 46.1138 28.9207C46.2056 29.0277 46.2623 29.1605 46.2759 29.3008L47.0722 31.465C47.1332 31.6154 47.1411 31.7821 47.0944 31.9375C47.0477 32.0929 46.9493 32.2277 46.8155 32.3196C37.8701 38.6604 39.1447 52.3104 49.108 56.8867C59.0713 61.4658 70.2538 53.5383 69.2359 42.6183C68.9028 39.0449 67.2331 35.7289 64.5607 33.3334C61.8883 30.9379 58.4102 29.6394 54.8217 29.6975C54.3 29.6694 53.7772 29.6694 53.2555 29.6975C53.0939 29.727 52.927 29.6973 52.7856 29.6137C52.6441 29.5301 52.5376 29.3983 52.4855 29.2425L48.898 19.6146C48.8271 19.4206 48.8271 19.2077 48.898 19.0137C49.0019 18.8473 49.1641 18.7256 49.353 18.6725L54.3405 17.4183C55.0734 17.2327 55.7026 16.7635 56.0896 16.1139C56.4766 15.4644 56.5897 14.6877 56.404 13.9548C56.2184 13.2218 55.7492 12.5927 55.0996 12.2057C54.4501 11.8187 53.6734 11.7056 52.9405 11.8912L45.678 13.7171C44.453 13.9796 43.4088 14.7729 42.8284 15.8812C42.2597 16.9517 42.1663 18.2146 42.5717 19.3579L42.7992 19.9558C42.9742 20.335 42.7701 20.7783 42.3734 20.895L28.4959 25.8825C28.3261 25.9459 28.1381 25.9395 27.973 25.8646C27.8079 25.7897 27.6792 25.6525 27.6151 25.4829L27.2709 24.6837C27.2368 24.6128 27.2191 24.535 27.2191 24.4562C27.2191 24.3775 27.2368 24.2997 27.2709 24.2287C27.3204 24.1608 27.3848 24.105 27.459 24.0656C27.5333 24.0261 27.6156 24.0041 27.6997 24.0012C28.4554 24.0012 29.1802 23.701 29.7146 23.1666C30.249 22.6322 30.5492 21.9074 30.5492 21.1517C30.5492 20.3959 30.249 19.6711 29.7146 19.1367C29.1802 18.6023 28.4554 18.3021 27.6997 18.3021H16.3626ZM14.9334 52.4912C8.35632 52.5117 4.22341 45.4008 7.49591 39.6929C10.7684 33.985 18.9934 33.9617 22.3009 39.6492C22.3748 39.7775 22.4458 39.9078 22.5138 40.04C22.5697 40.1503 22.5988 40.2722 22.5988 40.3958C22.5988 40.5195 22.5697 40.6414 22.5138 40.7517C22.4485 40.8522 22.3602 40.9358 22.2563 40.9957C22.1523 41.0555 22.0357 41.0898 21.9159 41.0958H14.9334C14.1938 41.1195 13.4924 41.4299 12.9776 41.9615C12.4628 42.493 12.175 43.204 12.175 43.9439C12.175 44.6839 12.4628 45.3949 12.9776 45.9264C13.4924 46.458 14.1938 46.7684 14.9334 46.7921H21.8838C22.0047 46.7929 22.1233 46.8251 22.2281 46.8854C22.3329 46.9457 22.4203 47.0321 22.4817 47.1362C22.5984 47.3492 22.5984 47.6058 22.4817 47.8187C21.7722 49.2142 20.693 50.3881 19.3619 51.212C18.0308 52.036 16.4989 52.4785 14.9334 52.4912ZM29.3242 40.8683C29.2806 40.8929 29.2314 40.9057 29.1813 40.9057C29.1313 40.9057 29.082 40.8929 29.0384 40.8683C28.9889 40.8615 28.942 40.8421 28.9022 40.812C28.8624 40.7819 28.8309 40.742 28.8109 40.6962C28.3783 38.7451 27.5329 36.9093 26.3317 35.3121C26.2368 35.1843 26.1855 35.0294 26.1855 34.8702C26.1855 34.711 26.2368 34.5561 26.3317 34.4283L27.9272 32.1504C28.0293 32.1221 28.1371 32.1221 28.2392 32.1504L36.3038 29.3008C36.5955 29.1929 36.9251 29.3008 37.1001 29.5575C37.2955 29.7967 37.2955 30.1408 37.1001 30.3829L29.3242 40.8683ZM54.9647 52.4912C52.6982 52.4912 50.5245 51.5909 48.9218 49.9882C47.3192 48.3856 46.4188 46.2119 46.4188 43.9454C46.4462 41.8292 47.2579 39.7983 48.6967 38.2462C48.731 38.1507 48.7875 38.0647 48.8616 37.9952C48.9356 37.9257 49.025 37.8748 49.1226 37.8467C49.2442 37.8702 49.3578 37.9243 49.4528 38.0039C49.5477 38.0835 49.6207 38.186 49.6651 38.3017L52.0567 44.8C52.4651 45.9258 53.5384 46.6783 54.7372 46.6783C55.0774 46.6783 55.4099 46.6219 55.7347 46.5092C56.0869 46.379 56.4099 46.1805 56.6852 45.9251C56.9605 45.6697 57.1826 45.3624 57.3387 45.0209C57.4948 44.6794 57.5819 44.3104 57.5949 43.9351C57.608 43.5598 57.5467 43.1857 57.4147 42.8342L54.5651 35.3675C61.1451 35.3675 65.2576 42.49 61.9676 48.1892C61.2174 49.4885 60.1383 50.5675 58.8389 51.3175C57.5395 52.0676 56.0655 52.4623 54.5651 52.4621L54.9647 52.4912Z" fill="black"/>
</svg>
