<svg width="62" height="61" viewBox="0 0 62 61" fill="none" xmlns="http://www.w3.org/2000/svg">
<g clip-path="url(#clip0_1143_1755)">
<path d="M15.5 34.3125C15.5 32.8044 15.0455 31.3302 14.1939 30.0763C13.3423 28.8224 12.1319 27.845 10.7158 27.2679C9.29967 26.6908 7.74141 26.5398 6.23805 26.834C4.7347 27.1282 3.35378 27.8544 2.26993 28.9208C1.18607 29.9872 0.447953 31.3458 0.148918 32.8249C-0.150118 34.304 0.00335793 35.8372 0.589937 37.2305C1.17652 38.6238 2.16985 39.8146 3.44433 40.6525C4.71881 41.4903 6.2172 41.9375 7.75 41.9375V61H54.25V41.9375C55.7828 41.9375 57.2812 41.4903 58.5557 40.6525C59.8302 39.8146 60.8235 38.6238 61.4101 37.2305C61.9967 35.8372 62.1501 34.304 61.8511 32.8249C61.5521 31.3458 60.8139 29.9872 59.7301 28.9208C58.6462 27.8544 57.2653 27.1282 55.762 26.834C54.2586 26.5398 52.7003 26.6908 51.2842 27.2679C49.8681 27.845 48.6577 28.8224 47.8061 30.0763C46.9545 31.3302 46.5 32.8044 46.5 34.3125V41.9375H15.5V34.3125Z" fill="black"/>
<path d="M21.3124 34.3125C21.3125 30.7867 19.8942 27.4042 17.3675 24.9039C14.8407 22.4037 11.4109 20.9889 7.82739 20.9688C8.30366 15.2442 10.9514 9.9053 15.2445 6.01303C19.5377 2.12076 25.162 -0.0400391 30.9999 -0.0400391C36.8378 -0.0400391 42.4621 2.12076 46.7552 6.01303C51.0484 9.9053 53.6961 15.2442 54.1724 20.9688C50.5888 20.9889 47.159 22.4037 44.6323 24.9039C42.1056 27.4042 40.6873 30.7867 40.6874 34.3125V36.2188H21.3124V34.3125Z" fill="black"/>
</g>
<defs>
<clipPath id="clip0_1143_1755">
<rect width="62" height="61" rx="7" fill="white"/>
</clipPath>
</defs>
</svg>
