<svg width="1038" height="1080" viewBox="0 0 1038 1080" fill="none" xmlns="http://www.w3.org/2000/svg">
<g clip-path="url(#clip0_379_928)">
<path d="M1352.22 565.186C1372.05 638.649 1568.48 855.101 1451.89 886.573C1386.01 904.356 1083.74 906.65 910.495 800.213C843.22 758.882 785.54 628.833 672.689 536.108C561.818 445.01 395.795 391.215 326.132 351.203C198.801 278.07 129.276 166.469 156.8 146.496C181.537 128.546 445.11 74.5458 674.17 76.6634C819.754 78.0092 946.503 111.471 1006.25 142.248C1147.31 214.91 1339.56 518.297 1352.22 565.186Z" fill="url(#paint0_linear_379_928)"/>
<path d="M1204.99 31.8106C1209.6 48.8667 1316.34 176.948 1255.61 250.319C1131.35 400.456 758.088 555.681 540.901 701.935C497.698 731.029 455.176 648.914 351.699 620.031C273.041 598.076 125.733 644.554 110.623 574.828C79.6287 431.799 320.373 149.707 433.061 78.5172C643.617 -54.4996 931.627 -40.1002 980.196 -53.2109C1084.1 -81.259 1184.75 -43.1936 1204.99 31.8106Z" fill="url(#paint1_linear_379_928)"/>
<path d="M1685.91 856.231C1710.03 945.565 961.917 1141.26 855.537 1169.98C789.994 1187.67 870.869 938.53 699.981 894.807C593.511 867.565 447.191 954.087 437.934 919.794C413.819 830.46 443.085 706.94 549.464 678.224C612.801 661.127 930.245 673.383 1065.27 805.281C1157.03 894.916 1676.16 820.085 1685.91 856.231Z" fill="url(#paint2_linear_379_928)"/>
<path d="M1363.29 275.783C1373.82 314.789 1292.5 396.679 1178.38 484.328C1021.96 604.467 807.735 734.39 719.021 770.057C661.086 793.35 281.252 610.943 353.928 483.299C389.264 421.237 815.921 374.188 911.794 324.552C1072.71 241.24 1192.29 -105.188 1235.04 -116.726C1362.5 -151.134 1338.33 183.312 1363.29 275.783Z" fill="url(#paint3_linear_379_928)"/>
<g filter="url(#filter0_d_379_928)">
<path d="M41.25 687V670.758H43.1719V677.602H50.8945V670.758H52.8281V687H50.8945V679.289H43.1719V687H41.25ZM61.9453 687.293C60.8906 687.293 59.9297 687.043 59.0625 686.543C58.2031 686.043 57.5156 685.324 57 684.387C56.4922 683.449 56.2383 682.328 56.2383 681.023C56.2383 679.719 56.4922 678.594 57 677.648C57.5156 676.703 58.1836 675.977 59.0039 675.469C59.8242 674.961 60.6914 674.707 61.6055 674.707C63.1133 674.707 64.2812 675.211 65.1094 676.219C65.9375 677.227 66.3516 678.598 66.3516 680.332C66.3516 680.77 66.3281 681.141 66.2812 681.445H58.1133C58.1758 682.75 58.5742 683.801 59.3086 684.598C60.043 685.395 60.9961 685.793 62.168 685.793C62.7695 685.793 63.3203 685.715 63.8203 685.559C64.3203 685.395 64.7852 685.168 65.2148 684.879L65.8828 686.062C65.3594 686.422 64.7812 686.719 64.1484 686.953C63.5156 687.18 62.7812 687.293 61.9453 687.293ZM58.0898 680.074H64.6758C64.6758 678.816 64.4102 677.859 63.8789 677.203C63.3477 676.547 62.5977 676.219 61.6289 676.219C60.7617 676.219 59.9844 676.555 59.2969 677.227C58.6172 677.898 58.2148 678.848 58.0898 680.074ZM71.3906 687.293C70.6719 687.293 70.1484 687.074 69.8203 686.637C69.5 686.191 69.3398 685.547 69.3398 684.703V669.363H71.2383V684.855C71.2383 685.176 71.2969 685.402 71.4141 685.535C71.5312 685.66 71.6719 685.723 71.8359 685.723C71.8984 685.723 71.957 685.723 72.0117 685.723C72.0742 685.715 72.1562 685.699 72.2578 685.676L72.5039 687.094C72.3711 687.148 72.2109 687.195 72.0234 687.234C71.8359 687.273 71.625 687.293 71.3906 687.293ZM75.5742 692.109V675.012H77.1562L77.332 676.395H77.3789C77.9258 675.949 78.5312 675.559 79.1953 675.223C79.8672 674.879 80.5469 674.707 81.2344 674.707C82.7969 674.707 83.9844 675.262 84.7969 676.371C85.6094 677.48 86.0156 678.965 86.0156 680.824C86.0156 682.184 85.7734 683.348 85.2891 684.316C84.8047 685.277 84.1641 686.016 83.3672 686.531C82.5781 687.039 81.7188 687.293 80.7891 687.293C80.2422 687.293 79.6875 687.172 79.125 686.93C78.5625 686.688 77.9961 686.344 77.4258 685.898L77.4727 688.008V692.109H75.5742ZM80.4961 685.699C81.5195 685.699 82.3672 685.266 83.0391 684.398C83.7188 683.523 84.0586 682.34 84.0586 680.848C84.0586 679.496 83.8047 678.398 83.2969 677.555C82.7891 676.711 81.9531 676.289 80.7891 676.289C80.2656 676.289 79.7344 676.438 79.1953 676.734C78.6562 677.023 78.082 677.445 77.4727 678V684.41C78.043 684.879 78.5859 685.211 79.1016 685.406C79.625 685.602 80.0898 685.699 80.4961 685.699Z" fill="#596BC2"/>
</g>
</g>
<defs>
<filter id="filter0_d_379_928" x="37.25" y="669.363" width="52.7656" height="30.7461" filterUnits="userSpaceOnUse" color-interpolation-filters="sRGB">
<feFlood flood-opacity="0" result="BackgroundImageFix"/>
<feColorMatrix in="SourceAlpha" type="matrix" values="0 0 0 0 0 0 0 0 0 0 0 0 0 0 0 0 0 0 127 0" result="hardAlpha"/>
<feOffset dy="4"/>
<feGaussianBlur stdDeviation="2"/>
<feComposite in2="hardAlpha" operator="out"/>
<feColorMatrix type="matrix" values="0 0 0 0 0 0 0 0 0 0 0 0 0 0 0 0 0 0 0.25 0"/>
<feBlend mode="normal" in2="BackgroundImageFix" result="effect1_dropShadow_379_928"/>
<feBlend mode="normal" in="SourceGraphic" in2="effect1_dropShadow_379_928" result="shape"/>
</filter>
<linearGradient id="paint0_linear_379_928" x1="282.627" y1="654.435" x2="1362.94" y2="362.816" gradientUnits="userSpaceOnUse">
<stop stop-color="#FF66FF" stop-opacity="0"/>
<stop offset="1" stop-color="#FF6666"/>
</linearGradient>
<linearGradient id="paint1_linear_379_928" x1="86.1525" y1="484.41" x2="1270.59" y2="164.683" gradientUnits="userSpaceOnUse">
<stop stop-color="#66FF92" stop-opacity="0"/>
<stop offset="1" stop-color="#78FF7E"/>
</linearGradient>
<linearGradient id="paint2_linear_379_928" x1="456.997" y1="990.414" x2="1636.21" y2="672.098" gradientUnits="userSpaceOnUse">
<stop stop-color="#6695FF" stop-opacity="0"/>
<stop offset="1" stop-color="#6695FF"/>
</linearGradient>
<linearGradient id="paint3_linear_379_928" x1="439.577" y1="471.834" x2="1391.69" y2="214.822" gradientUnits="userSpaceOnUse">
<stop stop-color="#FFB266" stop-opacity="0"/>
<stop offset="0.822115" stop-color="#FFC107"/>
</linearGradient>
<clipPath id="clip0_379_928">
<rect width="1447.58" height="1193.05" fill="white" transform="translate(0 165.255) rotate(-15.1064)"/>
</clipPath>
</defs>
</svg>
