<svg width="24" height="24" viewBox="0 0 27 24" fill="none" xmlns="http://www.w3.org/2000/svg">
<path d="M13.0352 1.5C15.3446 1.50009 17.5593 2.41773 19.1924 4.05078C20.8254 5.68383 21.7431 7.89853 21.7432 10.208V15.3545C21.7437 15.8127 21.8507 16.265 22.0557 16.6748V16.6758L24.5586 21.6826C24.5665 21.6984 24.5701 21.7158 24.5693 21.7334C24.5685 21.7511 24.563 21.7691 24.5537 21.7842C24.5444 21.7991 24.5319 21.8117 24.5166 21.8203C24.5012 21.8289 24.4835 21.8329 24.4658 21.833H1.60449C1.58683 21.833 1.56915 21.8289 1.55371 21.8203C1.53827 21.8117 1.52495 21.7992 1.51562 21.7842C1.50629 21.7691 1.5008 21.7511 1.5 21.7334L1.51074 21.6826L4.01465 16.6758L4.01562 16.6738C4.22024 16.2632 4.3266 15.8104 4.32617 15.3516V10.208C4.32626 7.89861 5.244 5.68382 6.87695 4.05078C8.51008 2.41765 10.7256 1.5 13.0352 1.5Z" stroke="white" stroke-width="3"/>
</svg>
