<svg width="35" height="35" viewBox="0 0 35 35" fill="none" xmlns="http://www.w3.org/2000/svg">
<path d="M4.375 14.5835V27.7085C4.375 28.482 4.68229 29.2239 5.22927 29.7709C5.77625 30.3179 6.51812 30.6252 7.29167 30.6252H27.7083C28.4819 30.6252 29.2237 30.3179 29.7707 29.7709C30.3177 29.2239 30.625 28.482 30.625 27.7085V14.5835" stroke="white" stroke-width="2.5"/>
<path d="M21.6318 30.6252V21.8752C21.6318 21.1016 21.3245 20.3597 20.7776 19.8128C20.2306 19.2658 19.4887 18.9585 18.7152 18.9585H15.7985C15.025 18.9585 14.2831 19.2658 13.7361 19.8128C13.1891 20.3597 12.8818 21.1016 12.8818 21.8752V30.6252" stroke="white" stroke-width="2.5" stroke-miterlimit="16"/>
<path d="M31.8182 13.6558L29.3478 5.00937C29.2955 4.82657 29.1851 4.66577 29.0333 4.55131C28.8815 4.43685 28.6965 4.37496 28.5064 4.375H22.6045L23.2972 12.6933C23.3079 12.827 23.3503 12.9563 23.4207 13.0704C23.4912 13.1845 23.5879 13.2802 23.7026 13.3496C24.2714 13.6894 25.3826 14.3165 26.2503 14.5833C27.732 15.0398 29.8962 14.875 31.1299 14.7233C31.2499 14.7078 31.365 14.6663 31.4672 14.6018C31.5695 14.5372 31.6564 14.4511 31.7219 14.3494C31.7875 14.2478 31.8301 14.133 31.8467 14.0133C31.8633 13.8935 31.8536 13.7715 31.8182 13.6558Z" stroke="white" stroke-width="2.5"/>
<path d="M20.4167 14.5833C21.245 14.3281 22.295 13.7462 22.8813 13.3992C23.0177 13.3176 23.1284 13.1992 23.2006 13.0576C23.2728 12.916 23.3037 12.7569 23.2896 12.5985L22.6042 4.375H12.3959L11.7105 12.5985C11.6961 12.7571 11.7269 12.9165 11.7991 13.0584C11.8713 13.2003 11.9821 13.3189 12.1188 13.4006C12.705 13.7463 13.755 14.3281 14.5834 14.5833C16.7607 15.2542 18.2394 15.2542 20.4167 14.5833Z" stroke="white" stroke-width="2.5"/>
<path d="M5.65239 5.00937L3.18198 13.6573C3.14711 13.7728 3.13778 13.8944 3.15466 14.0139C3.17153 14.1333 3.21419 14.2476 3.27969 14.3489C3.34518 14.4502 3.43193 14.5361 3.53393 14.6005C3.63592 14.6649 3.7507 14.7063 3.87031 14.7219C5.1026 14.875 7.26823 15.0383 8.74989 14.5833C9.6176 14.3165 10.7303 13.6894 11.2976 13.351C11.4126 13.2815 11.5093 13.1856 11.5798 13.0712C11.6503 12.9568 11.6925 12.8273 11.703 12.6933L12.3957 4.375H6.49385C6.30372 4.37496 6.11874 4.43685 5.96691 4.55131C5.81509 4.66577 5.70468 4.82657 5.65239 5.00937Z" stroke="white" stroke-width="2.5"/>
</svg>
