<svg width="237" height="76" viewBox="0 0 237 76" fill="none" xmlns="http://www.w3.org/2000/svg">
<path d="M70.4135 44.472C70.4135 48.568 73.7415 51.96 77.8375 51.96V59.384C69.6455 59.384 62.9895 52.728 62.9895 44.472V5.048H70.4135V44.472ZM149.017 12.152C144.921 12.152 141.593 15.48 141.593 19.576V19.832H149.017V27.256H141.593V59H134.169V19.576C134.169 11.384 140.825 4.664 149.017 4.664V12.152ZM176.201 20.216V27.64H165.961V41.72C165.961 47.352 170.569 51.896 176.201 51.896V59.384C166.409 59.384 158.537 51.448 158.537 41.72V5.048H165.961V20.216H176.201Z" fill="#78FF7E"/>
<g clip-path="url(#clip0_481_1675)">
<path d="M104.5 13.8431C92.0308 13.8431 81.9219 23.9521 81.9219 36.4216C81.9219 48.8911 92.0308 59 104.5 59C116.97 59 127.079 48.8911 127.079 36.4216C127.079 23.9521 116.97 13.8431 104.5 13.8431ZM104.961 23.0588C109.569 23.0588 114.638 26.2843 113.716 32.2745C123.392 31.8137 123.655 45.1765 116.941 47.0196L92.9807 47.0196C86.0689 45.1765 86.5297 33.1961 96.2062 32.2745C95.2846 28.5882 98.9709 22.598 104.961 23.0588Z" fill="#FFC107"/>
</g>
<defs>
<clipPath id="clip0_481_1675">
<rect width="47" height="47" fill="white" transform="translate(81 12)"/>
</clipPath>
</defs>
</svg>
