<svg width="35" height="35" viewBox="0 0 35 35" fill="none" xmlns="http://www.w3.org/2000/svg">
<path d="M12.3965 26.6562C12.8686 26.6563 13.3213 26.844 13.6553 27.1777C13.9893 27.5117 14.1777 27.9651 14.1777 28.4375C14.1777 28.9099 13.9893 29.3632 13.6553 29.6973C13.3213 30.0311 12.8687 30.2187 12.3965 30.2188C11.9241 30.2188 11.4708 30.0313 11.1367 29.6973C10.8027 29.3632 10.6152 28.9099 10.6152 28.4375C10.6153 27.9651 10.8027 27.5117 11.1367 27.1777C11.4707 26.8438 11.9242 26.6562 12.3965 26.6562ZM24.0625 26.6562C24.2963 26.6562 24.5281 26.7026 24.7441 26.792C24.9601 26.8815 25.1569 27.0125 25.3223 27.1777C25.4877 27.3432 25.6195 27.5398 25.709 27.7559C25.7985 27.9719 25.8437 28.2036 25.8438 28.4375C25.8438 28.9099 25.6563 29.3632 25.3223 29.6973C24.9882 30.0312 24.5349 30.2188 24.0625 30.2188C23.5903 30.2187 23.1377 30.0311 22.8037 29.6973C22.4697 29.3632 22.2812 28.9099 22.2812 28.4375C22.2813 28.2036 22.3275 27.9719 22.417 27.7559C22.5065 27.5398 22.6383 27.3431 22.8037 27.1777C22.969 27.0126 23.165 26.8814 23.3809 26.792C23.5969 26.7025 23.8287 26.6563 24.0625 26.6562ZM27.5977 8.28125C29.3657 8.28125 30.5834 9.90303 30.1191 11.4746L27.7051 19.6416V19.6426C27.3892 20.7127 26.3673 21.4686 25.1846 21.4688H11.832C10.7239 21.4688 9.75595 20.8051 9.37793 19.8389L9.31055 19.6416L5.9541 8.28125H27.5977Z" stroke="white" stroke-width="3"/>
</svg>
