<svg width="33" height="33" viewBox="0 0 33 33" fill="none" xmlns="http://www.w3.org/2000/svg">
<path fill-rule="evenodd" clip-rule="evenodd" d="M25.7755 7.22533C24.8472 6.29735 23.5884 5.77603 22.2758 5.77603C20.9633 5.77603 19.7044 6.29735 18.7762 7.22533L7.22618 18.7753C6.32427 19.7087 5.82504 20.959 5.83601 22.2568C5.84699 23.5547 6.36728 24.7964 7.28483 25.7143C8.20239 26.6323 9.44379 27.1532 10.7417 27.1648C12.0395 27.1764 13.29 26.6777 14.2238 25.7763H14.2255L15.0455 24.9513C15.2782 24.725 15.5904 24.5991 15.9149 24.6008C16.2395 24.6025 16.5504 24.7316 16.7806 24.9604C17.0108 25.1891 17.142 25.4991 17.1459 25.8236C17.1497 26.1482 17.0259 26.4612 16.8011 26.6953L15.9794 27.522L15.9761 27.5253C14.5837 28.9177 12.6951 29.7 10.7258 29.7C8.75658 29.7 6.86799 28.9177 5.47553 27.5253C4.08306 26.1328 3.30078 24.2442 3.30078 22.275C3.30078 20.3057 4.08306 18.4171 5.47553 17.0247L17.0255 5.47468C18.4171 4.08134 20.3052 3.29787 22.2745 3.29663C24.2437 3.29539 26.1328 4.07649 27.5261 5.46808C28.9195 6.85967 29.7029 8.74777 29.7042 10.717C29.7054 12.6863 28.9243 14.5753 27.5327 15.9687L21.832 21.8311C21.4339 22.2509 20.9559 22.5867 20.4259 22.8187C19.896 23.0506 19.325 23.1741 18.7466 23.1818C18.1681 23.1895 17.594 23.0812 17.0581 22.8634C16.5223 22.6456 16.0354 22.3226 15.6264 21.9136C15.2173 21.5045 14.8944 21.0177 14.6766 20.4818C14.4587 19.9459 14.3505 19.3718 14.3582 18.7934C14.3658 18.215 14.4893 17.6439 14.7213 17.114C14.9533 16.5841 15.2891 16.106 15.7088 15.708L21.4013 10.0138C21.5154 9.89558 21.6519 9.80124 21.8029 9.73632C21.9538 9.67139 22.1162 9.63718 22.2805 9.63567C22.4448 9.63417 22.6078 9.6654 22.7599 9.72755C22.912 9.7897 23.0502 9.88153 23.1665 9.99766C23.2827 10.1138 23.3747 10.2519 23.437 10.404C23.4993 10.556 23.5307 10.719 23.5293 10.8833C23.528 11.0476 23.4939 11.21 23.4291 11.361C23.3643 11.512 23.2701 11.6486 23.152 11.7628L17.4595 17.457C17.2867 17.6289 17.1494 17.8332 17.0556 18.0582C16.9617 18.2832 16.9131 18.5244 16.9125 18.7682C16.9119 19.012 16.9593 19.2535 17.052 19.4789C17.1447 19.7043 17.2809 19.9093 17.4529 20.0821C17.6248 20.2549 17.8291 20.3922 18.0541 20.486C18.2791 20.5799 18.5203 20.6285 18.7641 20.6291C19.0079 20.6297 19.2494 20.5823 19.4748 20.4896C19.7002 20.3969 19.9052 20.2607 20.078 20.0887L25.7771 14.2263C26.7051 13.298 27.2264 12.0392 27.2264 10.7266C27.2264 9.41406 26.7051 8.15524 25.7771 7.22698" fill="white"/>
</svg>
