<svg width="30" height="29" viewBox="0 0 30 29" fill="none" xmlns="http://www.w3.org/2000/svg">
<path d="M3.33333 29C2.41667 29 1.63222 28.6848 0.98 28.0543C0.327778 27.4238 0.00111111 26.665 0 25.7778V3.22222C0 2.33611 0.326667 1.57781 0.98 0.947333C1.63333 0.316852 2.41778 0.00107407 3.33333 0H26.6667C27.5833 0 28.3683 0.315778 29.0217 0.947333C29.675 1.57889 30.0011 2.33718 30 3.22222V25.7778C30 26.6639 29.6739 27.4227 29.0217 28.0543C28.3694 28.6858 27.5844 29.0011 26.6667 29H3.33333ZM5 22.5556H25L18.75 14.5L13.75 20.9444L10 16.1111L5 22.5556Z" fill="white"/>
</svg>
